<svg width="358" height="303" viewBox="0 0 358 303" fill="none" xmlns="http://www.w3.org/2000/svg">
<path fill-rule="evenodd" clip-rule="evenodd" d="M261.78 71.5382C283.656 72.9097 305.146 77.0076 321.932 91.1023C340.372 106.586 363.065 128.028 356.717 151.254C350.354 174.537 317.626 174.644 296.11 185.584C284.665 191.403 273.874 195.213 261.78 199.524C236.886 208.399 212.853 235.834 189.417 223.618C166.327 211.582 168.409 177.28 169.18 151.254C169.923 126.166 174.56 99.431 193.582 83.0557C211.746 67.4195 237.86 70.0386 261.78 71.5382Z" fill="#475467"/>
<path fill-rule="evenodd" clip-rule="evenodd" d="M56.322 100.597C72.9155 99.5228 92.198 102.512 101.72 116.144C110.746 129.065 101.054 145.929 98.8924 161.542C97.2135 173.666 97.3415 185.63 90.6767 195.896C81.9176 209.389 72.2342 224.757 56.322 227.119C39.1253 229.672 21.2283 221.138 9.98951 207.874C-0.59365 195.384 -0.465969 177.867 0.75671 161.542C1.86572 146.734 6.44172 132.639 16.4461 121.666C26.9753 110.117 40.7267 101.607 56.322 100.597Z" fill="#475467"/>
<path fill-rule="evenodd" clip-rule="evenodd" d="M154.417 130.378C143.432 142.884 127.667 154.418 111.277 151.509C95.7417 148.751 90.6652 129.954 81.1438 117.372C73.7498 107.601 65.191 99.2233 62.6413 87.2383C59.2905 71.4872 55.2668 53.7547 64.8583 40.8191C75.224 26.8394 93.9331 20.2117 111.277 21.6452C127.61 22.995 139.919 35.485 150.609 47.9063C160.306 59.1728 167.044 72.3895 167.73 87.2383C168.451 102.866 164.741 118.624 154.417 130.378Z" fill="#475467"/>
<path d="M219.528 188.32L164.892 160.151C164.068 159.725 163.447 158.99 163.165 158.107C162.882 157.223 162.962 156.264 163.386 155.439L166.766 148.884C167.191 148.06 167.927 147.439 168.81 147.157C169.693 146.874 170.653 146.954 171.477 147.378L226.114 175.547C226.937 175.973 227.559 176.708 227.841 177.592C228.123 178.475 228.044 179.434 227.62 180.259L224.24 186.814C224.03 187.223 223.742 187.586 223.391 187.883C223.04 188.179 222.634 188.403 222.195 188.542C221.849 188.653 221.488 188.71 221.124 188.71C220.569 188.709 220.021 188.576 219.528 188.32Z" fill="#783142"/>
<path d="M202.871 161.969C203.302 161.801 203.762 161.721 204.225 161.733C204.688 161.745 205.144 161.849 205.566 162.039L223.471 171.94C225.43 173.022 226.899 174.816 227.574 176.95C228.248 179.085 228.077 181.397 227.095 183.409L226.871 183.299L227.096 183.409C226.158 185.331 224.547 186.843 222.569 187.657C220.591 188.472 218.383 188.532 216.364 187.827L196.946 181.04C196.525 180.855 196.145 180.588 195.828 180.255C195.511 179.923 195.262 179.531 195.096 179.102C194.93 178.674 194.851 178.217 194.862 177.757C194.873 177.298 194.974 176.845 195.16 176.424L200.934 163.817C201.034 163.588 201.159 163.372 201.305 163.17C201.7 162.627 202.244 162.21 202.871 161.969Z" fill="#1E0C10"/>
<path d="M244.068 161.945C258.838 161.945 270.811 149.971 270.811 135.201C270.811 120.431 258.838 108.457 244.068 108.457C229.297 108.457 217.324 120.431 217.324 135.201C217.324 149.971 229.297 161.945 244.068 161.945Z" fill="#963D52"/>
<path d="M240.786 298.525V237.055C240.787 236.127 241.156 235.238 241.812 234.582C242.467 233.927 243.357 233.558 244.284 233.557H251.659C252.587 233.558 253.476 233.927 254.131 234.582C254.787 235.238 255.156 236.127 255.157 237.055V298.525C255.156 299.452 254.787 300.341 254.131 300.997C253.476 301.653 252.587 302.022 251.659 302.023H244.284C243.357 302.022 242.467 301.653 241.812 300.997C241.156 300.341 240.787 299.452 240.786 298.525Z" fill="#783142"/>
<path d="M224.796 298.525V237.055C224.797 236.127 225.165 235.238 225.821 234.582C226.477 233.927 227.366 233.558 228.293 233.557H235.669C236.596 233.558 237.485 233.927 238.141 234.582C238.797 235.238 239.166 236.127 239.167 237.055V298.525C239.166 299.452 238.797 300.341 238.141 300.997C237.485 301.653 236.596 302.022 235.669 302.023H228.293C227.366 302.022 226.477 301.653 225.821 300.997C225.165 300.341 224.797 299.452 224.796 298.525Z" fill="#783142"/>
<path d="M244.629 145.113L244.657 144.114C242.798 144.062 241.159 143.945 239.927 143.045C239.578 142.776 239.291 142.434 239.086 142.044C238.88 141.653 238.761 141.223 238.737 140.783C238.715 140.513 238.756 140.243 238.856 139.992C238.956 139.741 239.112 139.517 239.313 139.336C240.131 138.646 241.446 138.869 242.405 139.309L243.232 139.688L241.647 128.1L240.656 128.235L242.005 138.093C240.702 137.71 239.495 137.875 238.668 138.573C238.351 138.85 238.101 139.197 237.94 139.586C237.779 139.976 237.71 140.397 237.738 140.818C237.768 141.41 237.926 141.988 238.202 142.512C238.478 143.036 238.866 143.494 239.338 143.852C240.92 145.009 242.977 145.067 244.629 145.113Z" fill="#1E0C10"/>
<path d="M235.76 129.085H230.377V130.085H235.76V129.085Z" fill="#1E0C10"/>
<path d="M252.75 129.085H247.367V130.085H252.75V129.085Z" fill="#1E0C10"/>
<path d="M269.66 247.226L260.41 186.456C260.271 185.539 260.502 184.604 261.052 183.857C261.602 183.11 262.425 182.612 263.342 182.471L270.633 181.362C271.55 181.223 272.484 181.454 273.231 182.004C273.978 182.553 274.477 183.377 274.617 184.293L283.867 245.064C284.006 245.981 283.775 246.915 283.225 247.662C282.676 248.409 281.852 248.908 280.935 249.048L273.644 250.158C273.19 250.227 272.727 250.207 272.28 250.097C271.834 249.987 271.414 249.791 271.044 249.518C270.674 249.246 270.361 248.903 270.124 248.51C269.886 248.117 269.728 247.681 269.66 247.226V247.226Z" fill="#783142"/>
<path d="M262.511 208.221C262.121 207.97 261.786 207.645 261.524 207.263C261.261 206.882 261.078 206.452 260.984 205.998L258.476 185.693C258.201 183.471 258.789 181.229 260.12 179.429C261.451 177.629 263.423 176.409 265.627 176.022L265.671 176.267L265.627 176.021C267.734 175.651 269.904 176.066 271.725 177.188C273.546 178.31 274.892 180.061 275.508 182.11L281.424 201.81C281.521 202.26 281.528 202.724 281.446 203.176C281.363 203.628 281.192 204.06 280.943 204.446C280.693 204.832 280.37 205.165 279.992 205.426C279.614 205.687 279.188 205.871 278.738 205.967L265.144 208.703C264.9 208.755 264.652 208.782 264.402 208.782C263.731 208.782 263.074 208.587 262.511 208.221Z" fill="#1E0C10"/>
<path d="M263.229 252.146H191.76C191.035 252.146 190.322 251.96 189.689 251.607C189.057 251.254 188.525 250.744 188.144 250.127C187.764 249.51 187.548 248.806 187.516 248.082C187.485 247.358 187.64 246.638 187.965 245.99L222.519 177.275C224.92 172.5 228.861 168.676 233.706 166.419C238.55 164.162 244.014 163.606 249.214 164.839C254.414 166.073 259.045 169.025 262.359 173.217C265.673 177.41 267.476 182.598 267.476 187.942V247.898C267.475 249.024 267.027 250.104 266.231 250.9C265.435 251.697 264.355 252.144 263.229 252.146Z" fill="#1E0C10"/>
<path d="M37.433 39.2722C36.1911 40.0303 35.1647 41.0948 34.4524 42.3636C33.7402 43.6323 33.3658 45.0629 33.3654 46.5179V47.7672H34.3648V46.5179C34.3668 44.8654 34.9139 43.2597 35.9212 41.9497C36.9285 40.6397 38.3399 39.6986 39.9364 39.2722H37.433ZM160.13 38.0229H41.8603C39.6081 38.0256 37.4489 38.9214 35.8564 40.514C34.2638 42.1065 33.368 44.2657 33.3654 46.5179V220.914C33.3686 223.166 34.2646 225.325 35.857 226.918C37.4494 228.51 39.6083 229.406 41.8603 229.409H173.282C175.534 229.406 177.693 228.51 179.286 226.918C180.878 225.325 181.774 223.166 181.777 220.914V57.3515L160.13 38.0229ZM180.778 220.914C180.775 222.901 179.985 224.807 178.58 226.212C177.174 227.617 175.269 228.407 173.282 228.41H41.8603C39.8731 228.407 37.968 227.617 36.5628 226.212C35.1577 224.807 34.3672 222.901 34.3648 220.914V46.5179C34.3668 44.8654 34.9138 43.2597 35.9212 41.9497C36.9285 40.6397 38.3398 39.6986 39.9364 39.2722C40.564 39.105 41.2108 39.021 41.8603 39.0224H159.75L180.778 57.7962V220.914ZM37.433 39.2722C36.191 40.0303 35.1647 41.0948 34.4524 42.3636C33.7401 43.6323 33.3658 45.0629 33.3654 46.5179V47.7672H34.3648V46.5179C34.3668 44.8654 34.9138 43.2597 35.9212 41.9497C36.9285 40.6397 38.3398 39.6986 39.9364 39.2722H37.433Z" fill="#FCFCFD"/>
<path d="M181.277 58.0111H167.785C165.533 58.0085 163.374 57.1127 161.781 55.5202C160.189 53.9276 159.293 51.7683 159.291 49.5161V38.5227C159.291 38.3901 159.343 38.263 159.437 38.1693C159.531 38.0756 159.658 38.0229 159.79 38.0229C159.923 38.0229 160.05 38.0756 160.144 38.1693C160.237 38.263 160.29 38.3901 160.29 38.5227V49.5161C160.292 51.5034 161.083 53.4086 162.488 54.8138C163.893 56.219 165.798 57.0094 167.785 57.0117H181.277C181.41 57.0117 181.537 57.0643 181.631 57.158C181.725 57.2517 181.777 57.3788 181.777 57.5114C181.777 57.6439 181.725 57.771 181.631 57.8647C181.537 57.9584 181.41 58.0111 181.277 58.0111Z" fill="#FCFCFD"/>
<path d="M164.558 91.2413H50.6257C49.5654 91.2413 48.5486 90.8202 47.7989 90.0705C47.0492 89.3208 46.6281 88.304 46.6281 87.2437C46.6281 86.1835 47.0492 85.1667 47.7989 84.417C48.5486 83.6673 49.5654 83.2461 50.6257 83.2461H164.558C165.618 83.2461 166.635 83.6673 167.385 84.417C168.134 85.1667 168.556 86.1835 168.556 87.2437C168.556 88.304 168.134 89.3208 167.385 90.0705C166.635 90.8202 165.618 91.2413 164.558 91.2413Z" fill="#D4E7FD"/>
<path d="M107.092 74.2514H50.6257C49.5654 74.2514 48.5486 73.8302 47.7989 73.0805C47.0492 72.3308 46.6281 71.314 46.6281 70.2537C46.6281 69.1935 47.0492 68.1767 47.7989 67.427C48.5486 66.6773 49.5654 66.2561 50.6257 66.2561H107.092C108.152 66.2561 109.169 66.6773 109.919 67.427C110.669 68.1767 111.09 69.1935 111.09 70.2537C111.09 71.314 110.669 72.3308 109.919 73.0805C109.169 73.8302 108.152 74.2514 107.092 74.2514Z" fill="#D4E7FD"/>
<path d="M164.558 124.721H50.6257C49.5654 124.721 48.5486 124.3 47.7989 123.55C47.0492 122.801 46.6281 121.784 46.6281 120.724C46.6281 119.663 47.0492 118.647 47.7989 117.897C48.5486 117.147 49.5654 116.726 50.6257 116.726H164.558C165.618 116.726 166.635 117.147 167.385 117.897C168.134 118.647 168.556 119.663 168.556 120.724C168.556 121.784 168.134 122.801 167.385 123.55C166.635 124.3 165.618 124.721 164.558 124.721Z" fill="#D4E7FD"/>
<path d="M107.092 107.731H50.6257C49.5654 107.731 48.5486 107.31 47.7989 106.56C47.0492 105.811 46.6281 104.794 46.6281 103.734C46.6281 102.673 47.0492 101.657 47.7989 100.907C48.5486 100.157 49.5654 99.7361 50.6257 99.7361H107.092C108.152 99.7361 109.169 100.157 109.919 100.907C110.669 101.657 111.09 102.673 111.09 103.734C111.09 104.794 110.669 105.811 109.919 106.56C109.169 107.31 108.152 107.731 107.092 107.731Z" fill="#D4E7FD"/>
<path d="M160.519 201.426H54.5823C52.3963 201.423 50.3005 200.554 48.7548 199.008C47.2091 197.462 46.3396 195.367 46.3372 193.181V151.206C46.3396 149.02 47.2091 146.924 48.7548 145.378C50.3005 143.832 52.3963 142.963 54.5823 142.96H160.519C162.705 142.963 164.801 143.832 166.347 145.378C167.892 146.924 168.762 149.02 168.764 151.206V193.181C168.762 195.367 167.892 197.462 166.347 199.008C164.801 200.554 162.705 201.423 160.519 201.426Z" fill="#D4E7FD"/>
</svg>
