<svg width="84" height="32" viewBox="0 0 84 32" fill="none" xmlns="http://www.w3.org/2000/svg">
<path fill-rule="evenodd" clip-rule="evenodd" d="M5.92395 0C2.65224 0 0 2.65224 0 5.92395V26.0761C0 29.3478 2.65224 32 5.92395 32H77.5191C80.7908 32 83.443 29.3478 83.443 26.0761V5.92395C83.443 2.65224 80.7908 0 77.5191 0H5.92395ZM40.1532 24.4881C41.2411 25.4456 42.7138 25.9244 44.5716 25.9244C45.5088 25.9244 46.3372 25.8197 47.0569 25.6102C47.7933 25.3858 48.4041 25.109 48.8895 24.7798C49.3748 24.4507 49.743 24.114 49.9941 23.7699C50.2618 23.4258 50.4041 23.1341 50.4208 22.8947C50.4376 22.76 50.3874 22.6478 50.2702 22.558C50.1698 22.4683 50.0359 22.4234 49.8685 22.4234H47.7096C47.5255 22.4234 47.3832 22.4458 47.2828 22.4907C47.1991 22.5206 47.082 22.6254 46.9314 22.8049C46.8477 22.9096 46.7054 23.0443 46.5046 23.2089C46.3037 23.3734 46.0443 23.5231 45.7264 23.6577C45.4084 23.7774 45.0151 23.8373 44.5465 23.8373C43.9774 23.8373 43.4837 23.7026 43.0653 23.4333C42.6636 23.164 42.354 22.8124 42.1364 22.3785C41.9356 21.9297 41.8268 21.4434 41.8101 20.9198V20.8075V20.7402H50.1447C50.3288 20.7402 50.4794 20.6878 50.5966 20.5831C50.7137 20.4784 50.7723 20.3512 50.7723 20.2016V19.7303C50.7723 18.5633 50.538 17.5384 50.0694 16.6557C49.6008 15.758 48.9062 15.0623 47.9857 14.5686C47.0652 14.0599 45.9272 13.8055 44.5716 13.8055C43.3498 13.8055 42.2871 14.03 41.3833 14.4788C40.4796 14.9127 39.7683 15.5411 39.2495 16.364C38.7474 17.1719 38.4628 18.1444 38.3959 19.2815C38.3792 19.4161 38.3708 19.6031 38.3708 19.8425C38.3708 20.0669 38.3792 20.254 38.3959 20.4036C38.4796 22.169 39.0654 23.5305 40.1532 24.4881ZM47.3581 18.8551H41.8101V18.7877C41.8101 18.2042 41.9105 17.6955 42.1113 17.2617C42.3289 16.8128 42.6469 16.4687 43.0653 16.2293C43.4837 15.975 43.9858 15.8478 44.5716 15.8478C45.1573 15.8478 45.6594 15.975 46.0778 16.2293C46.4962 16.4687 46.8142 16.8128 47.0318 17.2617C47.2493 17.6955 47.3581 18.2042 47.3581 18.7877V18.8551ZM29.4269 25.7673C29.5441 25.872 29.6864 25.9244 29.8537 25.9244H32.0378C32.2219 25.9244 32.3725 25.872 32.4897 25.7673C32.6068 25.6626 32.6654 25.5354 32.6654 25.3858V19.2141C32.6654 18.496 32.883 17.9424 33.3181 17.5534C33.77 17.1494 34.3976 16.9475 35.2009 16.9475H37.159C37.3431 16.9475 37.4854 16.8951 37.5858 16.7904C37.703 16.6856 37.7616 16.5585 37.7616 16.4088V14.793C37.7616 14.6434 37.703 14.5162 37.5858 14.4115C37.4854 14.3067 37.3431 14.2544 37.159 14.2544H36.1298C35.3264 14.2544 34.6152 14.3815 33.9959 14.6359C33.3934 14.8902 32.8997 15.2568 32.5148 15.7356V14.8154C32.5148 14.6509 32.4478 14.5162 32.3139 14.4115C32.1968 14.3067 32.0545 14.2544 31.8872 14.2544H29.8537C29.6864 14.2544 29.5441 14.3067 29.4269 14.4115C29.3098 14.5162 29.2512 14.6509 29.2512 14.8154V25.3858C29.2512 25.5354 29.3098 25.6626 29.4269 25.7673ZM57.9426 24.7709C57.791 24.7709 57.6622 24.7228 57.5561 24.6265C57.45 24.5302 57.397 24.4133 57.397 24.2757V20.5589H53.3389C53.1873 20.5589 53.0585 20.5108 52.9524 20.4145C52.8463 20.3182 52.7933 20.1944 52.7933 20.0431V18.357C52.7933 18.2057 52.8463 18.0888 52.9524 18.0063C53.0585 17.91 53.1873 17.8618 53.3389 17.8618H57.397V14.2482C57.397 14.1106 57.45 13.9937 57.5561 13.8974C57.6622 13.8011 57.791 13.753 57.9426 13.753H59.8742C60.0409 13.753 60.1698 13.8011 60.2607 13.8974C60.3668 13.9937 60.4198 14.1106 60.4198 14.2482V17.8618H64.4779C64.6295 17.8618 64.7583 17.91 64.8644 18.0063C64.9705 18.0888 65.0235 18.2057 65.0235 18.357V20.0431C65.0235 20.1944 64.9705 20.3182 64.8644 20.4145C64.7583 20.5108 64.6295 20.5589 64.4779 20.5589H60.4198V24.2757C60.4198 24.4133 60.3668 24.5302 60.2607 24.6265C60.1698 24.7228 60.0409 24.7709 59.8742 24.7709H57.9426ZM72.1764 24.7709C72.0249 24.7709 71.8961 24.7228 71.79 24.6265C71.6839 24.5302 71.6308 24.4133 71.6308 24.2757V20.5589H67.5727C67.4212 20.5589 67.2924 20.5108 67.1863 20.4145C67.0802 20.3182 67.0271 20.1944 67.0271 20.0431V18.357C67.0271 18.2057 67.0802 18.0888 67.1863 18.0063C67.2924 17.91 67.4212 17.8618 67.5727 17.8618H71.6308V14.2482C71.6308 14.1106 71.6839 13.9937 71.79 13.8974C71.8961 13.8011 72.0249 13.753 72.1764 13.753H74.1081C74.2748 13.753 74.4036 13.8011 74.4946 13.8974C74.6006 13.9937 74.6537 14.1106 74.6537 14.2482V17.8618H78.7118C78.8634 17.8618 78.9922 17.91 79.0983 18.0063C79.2044 18.0888 79.2574 18.2057 79.2574 18.357V20.0431C79.2574 20.1944 79.2044 20.3182 79.0983 20.4145C78.9922 20.5108 78.8634 20.5589 78.7118 20.5589H74.6537V24.2757C74.6537 24.4133 74.6006 24.5302 74.4946 24.6265C74.4036 24.7228 74.2748 24.7709 74.1081 24.7709H72.1764ZM25.4132 13.8179C26.5478 13.8179 27.4677 12.828 27.4677 11.6069C27.4677 10.3858 26.5478 9.39589 25.4132 9.39589C24.2785 9.39589 23.3587 10.3858 23.3587 11.6069C23.3587 12.828 24.2785 13.8179 25.4132 13.8179ZM24.3845 25.9648C24.2183 25.9648 24.0771 25.9078 23.9608 25.7938C23.9174 25.7513 23.8226 25.7054 23.7208 25.6561L23.7208 25.656L23.7207 25.656C23.5496 25.5731 23.3587 25.4806 23.3587 25.3785L23.6866 15.1919C23.6866 15.0589 23.7253 15.0236 23.8029 14.9531C23.8203 14.9373 23.8397 14.9197 23.861 14.8987C23.9774 14.7847 24.0438 14.7766 24.21 14.7766H26.4783C26.6611 14.7766 26.8273 14.7847 26.927 14.8987C27.0433 15.0127 27.0516 15.029 27.0516 15.1919L27.4677 25.3785C27.4677 25.481 27.2799 25.5738 27.1116 25.6569C27.0125 25.7059 26.9202 25.7515 26.8771 25.7938C26.7774 25.9078 26.6362 25.9648 26.4534 25.9648H24.3845ZM6.38075 10.3632C7.51542 10.3632 8.43525 9.37332 8.43525 8.15222C8.43525 6.93111 7.51542 5.94121 6.38075 5.94121C5.24608 5.94121 4.32625 6.93111 4.32625 8.15222C4.32625 9.37332 5.24608 10.3632 6.38075 10.3632ZM21.5841 8.63113C21.5841 9.85223 20.6643 10.8421 19.5296 10.8421C18.395 10.8421 17.4751 9.85223 17.4751 8.63113C17.4751 7.41003 18.395 6.42013 19.5296 6.42013C20.6643 6.42013 21.5841 7.41003 21.5841 8.63113ZM8.06426 25.973H5.09992C5.07057 25.973 4.98839 25.957 4.89447 25.8931C4.77707 25.8132 4.42488 25.4669 4.33683 25.2538C4.308 25.184 4.3421 23.9038 4.39246 22.0138C4.46512 19.2865 4.57162 15.2895 4.57162 11.8279L4.65967 11.6414L4.74772 11.5082L4.89447 11.4017L5.09992 11.2951H8.03491L8.26971 11.3484L8.38711 11.4283L8.53386 11.5882L8.59256 11.6414L8.65126 11.8279C8.65126 11.8279 8.90487 13.8258 8.84617 14.6782C8.78747 15.5307 17.3095 15.8503 17.3095 15.8503L17.2508 11.8279L17.3389 11.6681L17.4269 11.5349L17.5737 11.4017L17.7498 11.3218L17.9846 11.2951H20.6848L20.8902 11.3218L21.037 11.4017L21.1837 11.5082L21.3011 11.6681L21.3598 11.8279L21.5946 25.0673L21.4772 25.4402L21.3011 25.6533L21.2131 25.7599L21.037 25.8931L20.8902 25.9464L20.7728 25.973H17.9552L17.8085 25.9464L17.6617 25.8931L17.5443 25.8132L17.4269 25.7066L17.3682 25.6001L17.1628 25.4402L17.0454 25.0673L17.3095 18.1945C13.8455 17.3856 11.9456 17.3545 8.65126 18.1945C8.65126 19.6093 8.68795 20.6667 8.72464 21.7241C8.76132 22.7815 8.79801 23.8389 8.79801 25.2538L8.62191 25.5468L8.56321 25.6533L8.47516 25.7599L8.38711 25.8664L8.26971 25.9197L8.09361 25.973H8.06426Z" fill="#2888F6"/>
</svg>
