<svg width="14" height="19" viewBox="0 0 14 19" fill="none" xmlns="http://www.w3.org/2000/svg">
<path fill-rule="evenodd" clip-rule="evenodd" d="M12 5.07072C13.1046 5.07072 14 3.9356 14 2.53536C14 1.13512 13.1046 0 12 0C10.8954 0 10 1.13512 10 2.53536C10 3.9356 10.8954 5.07072 12 5.07072ZM10.9986 19C10.8369 19 10.6994 18.9346 10.5861 18.8039C10.5439 18.7551 10.4516 18.7025 10.3525 18.6459C10.1859 18.5509 10 18.4448 10 18.3277L10.3192 6.64668C10.3192 6.4942 10.3569 6.45377 10.4324 6.37291C10.4494 6.35474 10.4683 6.33452 10.4891 6.31054C10.6023 6.17981 10.667 6.17048 10.8288 6.17048H13.0369C13.2148 6.17048 13.3766 6.17981 13.4737 6.31054C13.5869 6.44126 13.595 6.45993 13.595 6.64668L14 18.3277C14 18.4452 13.8172 18.5517 13.6534 18.647C13.557 18.7031 13.4671 18.7555 13.4251 18.8039C13.3281 18.9346 13.1906 19 13.0126 19H10.9986Z" fill="#2888F6"/>
<path fill-rule="evenodd" clip-rule="evenodd" d="M2 5.07072C3.10457 5.07072 4 3.9356 4 2.53536C4 1.13512 3.10457 0 2 0C0.89543 0 0 1.13512 0 2.53536C0 3.9356 0.89543 5.07072 2 5.07072ZM0.998624 19C0.836859 19 0.699355 18.9346 0.586121 18.8039C0.54388 18.7551 0.451594 18.7025 0.352477 18.6459C0.185886 18.5509 0 18.4448 0 18.3277L0.319205 6.64668C0.319205 6.4942 0.35695 6.45377 0.432442 6.37291C0.449409 6.35474 0.468281 6.33452 0.48906 6.31054C0.602296 6.17981 0.667002 6.17048 0.82877 6.17048H3.03688C3.21483 6.17048 3.37659 6.17981 3.47366 6.31054C3.58689 6.44126 3.59498 6.45993 3.59498 6.64668L4 18.3277C4 18.4452 3.81718 18.5517 3.65342 18.647C3.55696 18.7031 3.4671 18.7555 3.42512 18.8039C3.32807 18.9346 3.19056 19 3.01262 19H0.998624Z" fill="#2888F6"/>
<path d="M12.585 8.98853C12.585 8.98853 10.1654 10.6952 7.92838 10.0283C5.38911 8.47633 1.89538 9.30581 1.89538 9.30581L1.8214 11.0568C1.8214 11.0568 4.52381 9.97588 6.6459 11.316C9.45391 12.4064 12.731 10.8308 12.731 10.8308L12.585 8.98853Z" fill="#2888F6"/>
</svg>
