<svg width="10" height="63" viewBox="0 0 10 63" fill="none" xmlns="http://www.w3.org/2000/svg">
<path fill-rule="evenodd" clip-rule="evenodd" d="M5.07275 0L10 57L9.89998 57C9.96557 57.3231 10 57.6575 10 58C10 60.7614 7.76142 63 5 63C2.23858 63 -9.35299e-07 60.7614 0 58C5.49156e-08 57.6575 0.0344307 57.3231 0.100018 57H3.35931e-05L5.07275 0ZM5.00003 60C6.1046 60 7.00003 59.1046 7.00003 58C7.00003 56.8954 6.1046 56 5.00003 56C3.89546 56 3.00003 56.8954 3.00003 58C3.00003 59.1046 3.89546 60 5.00003 60Z" fill="#206DC5"/>
</svg>
