<svg width="28" height="18" viewBox="0 0 28 18" fill="none" xmlns="http://www.w3.org/2000/svg">
<path d="M25.5 3H17V2.5C17 1.1 15.9 0 14.5 0H2.5C1.1 0 0 1.1 0 2.5V9.5C0 10.9 1.1 12 2.5 12H3V14.5C3 14.7 3.1 14.9 3.3 14.9C3.4 15 3.4 15 3.5 15C3.6 15 3.7 15 3.8 14.9L7.7 12H11V12.5C11 13.9 12.1 15 13.5 15H20.3L24.2 17.9C24.3 18 24.4 18 24.5 18C24.6 18 24.7 18 24.7 17.9C24.9 17.8 25 17.6 25 17.5V15H25.5C26.9 15 28 13.9 28 12.5V5.5C28 4.1 26.9 3 25.5 3ZM7.5 11C7.4 11 7.3 11 7.2 11.1L4 13.5V11.5C4 11.2 3.8 11 3.5 11H2.5C1.7 11 1 10.3 1 9.5V2.5C1 1.7 1.7 1 2.5 1H14.5C15.3 1 16 1.7 16 2.5V3H13.5C12.1 3 11 4.1 11 5.5V11H7.5ZM27 12.5C27 13.3 26.3 14 25.5 14H24.5C24.2 14 24 14.2 24 14.5V16.5L20.8 14.1C20.7 14 20.6 14 20.5 14H13.5C12.7 14 12 13.3 12 12.5V5.5C12 4.7 12.7 4 13.5 4H25.5C26.3 4 27 4.7 27 5.5V12.5Z" fill="url(#paint0_linear_518_7720)"/>
<path d="M20.5 6H18.5C17.7 6 17 6.7 17 7.5V11.5C17 11.8 17.2 12 17.5 12C17.8 12 18 11.8 18 11.5V10H21V11.5C21 11.8 21.2 12 21.5 12C21.8 12 22 11.8 22 11.5V7.5C22 6.7 21.3 6 20.5 6ZM18 9V7.5C18 7.2 18.2 7 18.5 7H20.5C20.8 7 21 7.2 21 7.5V9H18Z" fill="url(#paint1_linear_518_7720)"/>
<path d="M9 7.29951V4.49951C9 3.69951 8.3 2.99951 7.5 2.99951H6.5C5.7 2.99951 5 3.69951 5 4.49951V7.49951C5 8.29951 5.7 8.99951 6.5 8.99951H7.5C8 8.99951 8.4 8.79951 8.7 8.39951L9.2 8.89951C9.3 8.99951 9.4 8.99951 9.6 8.99951C9.8 8.99951 9.9 8.99951 10 8.89951C10.2 8.69951 10.2 8.39951 10 8.19951L9 7.29951ZM7.5 7.99951H6.5C6.2 7.99951 6 7.79951 6 7.49951V4.49951C6 4.19951 6.2 3.99951 6.5 3.99951H7.5C7.8 3.99951 8 4.19951 8 4.49951V6.29951L7.9 6.19951C7.7 5.99951 7.4 5.99951 7.2 6.19951C7 6.39951 7 6.69951 7.2 6.89951L8 7.69951C7.9 7.89951 7.7 7.99951 7.5 7.99951Z" fill="url(#paint2_linear_518_7720)"/>
<defs>
<linearGradient id="paint0_linear_518_7720" x1="-0.000151866" y1="8.9699" x2="17.4481" y2="-4.59879" gradientUnits="userSpaceOnUse">
<stop stop-color="#103662"/>
<stop offset="1" stop-color="#206DC5"/>
</linearGradient>
<linearGradient id="paint1_linear_518_7720" x1="17" y1="8.98997" x2="21.2605" y2="7.21502" gradientUnits="userSpaceOnUse">
<stop stop-color="#103662"/>
<stop offset="1" stop-color="#206DC5"/>
</linearGradient>
<linearGradient id="paint2_linear_518_7720" x1="4.99997" y1="5.98948" x2="9.34917" y2="4.12325" gradientUnits="userSpaceOnUse">
<stop stop-color="#103662"/>
<stop offset="1" stop-color="#206DC5"/>
</linearGradient>
</defs>
</svg>
